<svg xmlns="http://www.w3.org/2000/svg" id="Layer_2" data-name="Layer 2" viewBox="0 0 57.81 46.16">
  <defs>
    <style>
      .cls-1 {
        fill: #fff
      }
    </style>
  </defs>
  <path d="M24.18 7.05a.94.94 0 0 1-.52 1.07 1 1 0 0 1-1.25-1.4.9.9 0 0 1 1.05-.42 3.1 3.1 0 0 0-.28.58c0 .09.06.24.14.32.21.29.5.19.86-.15ZM41.55 40.84a2.06 2.06 0 0 1-2.31 1.93 1.21 1.21 0 0 1-1-1.09 2.09 2.09 0 0 1 2.18-2.19 1.24 1.24 0 0 1 1.13 1.35ZM27.53 40.86a2.09 2.09 0 0 1-2.12 1.94 1.26 1.26 0 0 1-1.2-1.52 2.13 2.13 0 0 1 2-1.76 1.26 1.26 0 0 1 1.32 1.34Z" class="cls-1" />
  <path d="M22.12 45.4h.36a3.93 3.93 0 0 1-1.19-4 9.08 9.08 0 0 1-3.1-1.94 8.84 8.84 0 0 1-2-3H.35a.39.39 0 0 1-.32-.47.41.41 0 0 1 .34-.36 4.47 4.47 0 0 1 .63 0h14.82l-.37-1.89H8.83c-.26 0-.45-.11-.45-.39s.18-.39.44-.39h6.58l.12-1.83H3.9c-.27 0-.49-.08-.49-.39s.21-.4.48-.4h11.79l.35-1.53h-1.38l.82-3.78h.74a14.13 14.13 0 0 0 .4-5c-.36-2.57-.55-5.16-.83-7.74-.14-1.29-.35-2.57-.47-3.86a9.81 9.81 0 0 1 .72-5.24 5.45 5.45 0 0 1 3.45-3.1 1.08 1.08 0 0 1 1.24.25 1.27 1.27 0 0 1 .22 1.37c-.14.35-.36.68-.53 1a1.12 1.12 0 0 0-.07.42h.14c0-.1.09-.19.14-.29A3.45 3.45 0 0 1 23.03 1a1 1 0 0 1 1 .36.94.94 0 0 1 .08 1.06c-.17.35-.36.7-.57 1.09a6.38 6.38 0 0 1 2.39 2.09 2.77 2.77 0 0 0 2.67.91c.63-.08 1.25-.22 1.88-.3a3.43 3.43 0 0 1 3.46 1.21 3.91 3.91 0 0 1 0 4.46 7.2 7.2 0 0 1-4 2.82c-.78.25-1.57.48-2.36.71a2.93 2.93 0 0 0-1.66 4.5 20.69 20.69 0 0 0 2.86 3.26c.54.55 1.07 1.12 1.61 1.67a.51.51 0 0 0 .3.17H33.53a3.69 3.69 0 0 1 2.27-4.52c.12-.47.2-.94.36-1.38a4.39 4.39 0 0 1 7.44-1.28.81.81 0 0 0 .42.26 4.82 4.82 0 0 1 3.89 3.56.83.83 0 0 0 .08.18 3 3 0 0 1 3.8 3.17h6l-.76 3.8h-1.38c-.17.75-.31 1.49-.51 2.2a14.8 14.8 0 0 1-4.6 7.18 15.47 15.47 0 0 1-5.72 3.23.57.57 0 0 0-.35.36 6 6 0 0 1-5.75 4.4h-6.29c-.29 0-.55 0-.54-.39s.28-.38.56-.38H36.51a3.83 3.83 0 0 1-1.33-3.39h-4.67a17.27 17.27 0 0 1-1.12 1.86 5.65 5.65 0 0 1-4.68 2.33h-6.96c-.25 0-.42-.11-.42-.37s.16-.38.41-.39m17.61-4.26a1.16 1.16 0 0 1 .06-.15 5.82 5.82 0 0 1 4.86-4 3.65 3.65 0 0 1 4.33 3.36v.27a14.15 14.15 0 0 0 6.52-4.17c-1.27-.06-2.52-.06-3.77-.06h-.44c-.12 0-.36-.24-.37-.38s.21-.29.35-.39.22 0 .33 0h4.35c.13 0 .32 0 .38-.07.42-.56.81-1.14 1.22-1.72l-.09-.11H37.74c-.52 0-.7-.1-.71-.4s.19-.4.71-.4h15.88l.7-1.8h-13.1c-.27 0-.47-.14-.47-.43s.21-.37.47-.38h13.29l.31-1.48H44.65c-.48 0-.69-.12-.67-.4 0-.43.38-.39.68-.39h11.69l.47-2.2H16.11l-.47 2.2h11.6c.56 0 .77.11.73.41-.05.45-.42.38-.72.38H16.82l-.33 1.48h16.54c.54 0 .75.11.74.41s-.21.39-.72.39H16.33l-.13 1.81h13.73c.25 0 .45.11.45.39s-.19.4-.46.41H16.24l.42 1.9h15.91c.3 0 .64 0 .69.39s-.19.41-.7.41H17.03c.43 1.59 3.06 4 4.48 4.1l.15-.3a5.91 5.91 0 0 1 4.53-3.19 3.66 3.66 0 0 1 4.3 3.23 7 7 0 0 1 0 .92ZM30.6 7.01l-2.12.3a3.35 3.35 0 0 1-3.07-1.12c-.19-.23-.41-.44-.58-.68A3.76 3.76 0 0 0 21.39 4a7.66 7.66 0 0 1-.83 0 1 1 0 0 1-.89-1.51c.1-.21.24-.41.34-.62a2.82 2.82 0 0 0 .18-.45c.09-.47-.13-.66-.59-.52a4.64 4.64 0 0 0-2.71 2.32A6.94 6.94 0 0 0 16.03 7c.08 1.6.29 3.18.46 4.77.29 2.8.59 5.61.88 8.41a15.07 15.07 0 0 1 .13 2 13.71 13.71 0 0 1-.32 1.77c-.06.33-.11.67-.17 1h10.22c-.2-.23-.31-.43-.49-.53a5.67 5.67 0 0 0-1.46-.72c-1.1-.24-2.23-.4-3.35-.54-.61-.08-1.24-.06-1.89-.08l.52-2.34a2.27 2.27 0 0 1 .16-.61c.08-.13.3-.28.42-.25s.24.24.31.39 0 .22-.05.33c-.12.55-.24 1.11-.36 1.69h.3c1.19.15 2.39.23 3.56.46 1.33.28 2.61.74 3.15 2.18h1.39l-.34-.38c-.6-.59-1.24-1.16-1.8-1.79a21.53 21.53 0 0 1-2.09-2.59 3.59 3.59 0 0 1 1.17-5.14 1.19 1.19 0 0 1 .2-.08.63.63 0 0 0-.28-.16c-1-.34-2-.67-3-1a7.16 7.16 0 0 1-1.06-.56.37.37 0 0 1-.18-.54c.12-.23.33-.23.55-.15l.24.11c.85.37 1.7.79 2.58 1.1a6.92 6.92 0 0 0 6.4-.8 4.58 4.58 0 0 0 1.84-2.21 7.47 7.47 0 0 0 .24-.89c-.79-.53-1.51-1-2.19-1.47a2.36 2.36 0 0 1-1.12-1.37Zm3.81 18h16.62a7.17 7.17 0 0 0-.22-1.12 2 2 0 0 0-1.68-1.4 2 2 0 0 0-2 .92c-.18.24-.37.46-.67.24s-.15-.49 0-.71.47-.51.71-.77a3.79 3.79 0 0 0-2.83-3.14c0 .14.08.27.11.39s.08.29.11.44c.1.49 0 .71-.25.78s-.43-.1-.53-.61a3.59 3.59 0 0 0-5.47-2.43 3.49 3.49 0 0 0-1.67 2.67h.45a3.64 3.64 0 0 1 3.43 2.78c.13.52.07.78-.22.82-.45 0-.47-.31-.55-.61a2.84 2.84 0 0 0-3.36-2.15 2.8 2.8 0 0 0-1.98 3.87Zm9.39 15.68a2.74 2.74 0 0 0-2.4-2.88 4.34 4.34 0 0 0-3.55 1 4.52 4.52 0 0 0-1.82 3.78 2.78 2.78 0 0 0 2.47 2.75 5 5 0 0 0 5.3-4.65Zm-17.06-2.94a5.09 5.09 0 0 0-4.71 4.1 2.91 2.91 0 0 0 3 3.54 5.1 5.1 0 0 0 4.72-4.19 2.88 2.88 0 0 0-3.01-3.45ZM21.29 3.19l1.49.09c.21-.39.42-.78.62-1.18a.35.35 0 0 0 0-.27.36.36 0 0 0-.27-.05 3 3 0 0 0-1.84 1.41Z" class="cls-1" />
  <path d="M47.84 16.89a2.47 2.47 0 1 1 2.44 2.47 2.48 2.48 0 0 1-2.44-2.47Zm.8 0a1.67 1.67 0 1 0 1.66-1.67 1.66 1.66 0 0 0-1.66 1.68ZM43.88 14.8a1.61 1.61 0 1 1 1.64 1.69 1.63 1.63 0 0 1-1.64-1.69Zm.8 0a.81.81 0 0 0 .82.83.82.82 0 1 0 0-1.63.81.81 0 0 0-.82.82Z" class="cls-1" />
</svg>