<svg id="Main" xmlns="http://www.w3.org/2000/svg" viewBox="0 0 32.41 29.92"><defs><style>.cls-1{fill:#0b0909;}.cls-2{fill:#fff;}.cls-3{fill:#da6b76;}.cls-4{fill:#f9bd4e;}.cls-5{fill:#7dbfcd;}</style></defs><g id="Outline"><path class="cls-1" d="M10.91,6.36a.62.62,0,0,1-.34.7.64.64,0,0,1-.75-.17.63.63,0,0,1-.06-.74.59.59,0,0,1,.68-.27,1.41,1.41,0,0,0-.18.37c0,.06,0,.16.09.21S10.67,6.58,10.91,6.36Z" transform="translate(-0.3 -1.54)"/><path class="cls-2" d="M22.17,28.26a1.34,1.34,0,0,1-1.5,1.26.78.78,0,0,1-.66-.71,1.34,1.34,0,0,1,1.42-1.39A.81.81,0,0,1,22.17,28.26Z" transform="translate(-0.3 -1.54)"/><path class="cls-2" d="M13.08,28.28a1.34,1.34,0,0,1-1.38,1.25.82.82,0,0,1-.78-1,1.39,1.39,0,0,1,1.29-1.14A.82.82,0,0,1,13.08,28.28Z" transform="translate(-0.3 -1.54)"/><path class="cls-1" d="M9.57,31h.24A2.55,2.55,0,0,1,9,28.33a6,6,0,0,1-2-1.26A5.91,5.91,0,0,1,5.7,25.13H.64a.25.25,0,0,1-.22-.26.27.27,0,0,1,.22-.23,2.81,2.81,0,0,1,.41,0H5.49l-.24-1.22h-3c-.16,0-.29-.08-.29-.26s.12-.25.29-.25.48,0,.72,0H5.22l.08-1.19H.61c-.17,0-.31-.05-.31-.25s.13-.26.31-.26H5.4l.2-.95H4.73l.53-2.45.48,0A9.2,9.2,0,0,0,6,14.52c-.23-1.67-.36-3.35-.54-5-.09-.83-.23-1.66-.3-2.5A6.38,6.38,0,0,1,5.6,3.6a3.6,3.6,0,0,1,2.24-2,.7.7,0,0,1,.8.17.82.82,0,0,1,.15.88c-.09.23-.24.44-.35.67a.79.79,0,0,0,0,.27l.08,0,.1-.19a2.27,2.27,0,0,1,1.59-1.23.63.63,0,0,1,.64.24.59.59,0,0,1,.06.68c-.11.23-.24.46-.37.71a4.25,4.25,0,0,1,1.55,1.36,1.8,1.8,0,0,0,1.73.59c.41-.06.81-.15,1.22-.2a2.24,2.24,0,0,1,2.24.78,2.56,2.56,0,0,1,0,2.9,4.65,4.65,0,0,1-2.61,1.82c-.51.17-1,.32-1.53.47A1.89,1.89,0,0,0,12,14.44a13.86,13.86,0,0,0,1.85,2.12l1.05,1.07a.36.36,0,0,0,.19.12h1.78s0,0,.06,0a2.41,2.41,0,0,1,1.49-2.9,8.28,8.28,0,0,1,.23-.89,2.84,2.84,0,0,1,4.82-.83.55.55,0,0,0,.28.17,3.13,3.13,0,0,1,2.52,2.31.48.48,0,0,0,.05.11,2,2,0,0,1,1.77.36,1.92,1.92,0,0,1,.69,1.7h3.9l-.53,2.45H31.3c-.11.49-.2,1-.33,1.43a9.62,9.62,0,0,1-3,4.65,9.9,9.9,0,0,1-3.71,2.09.38.38,0,0,0-.22.24,3.87,3.87,0,0,1-3.73,2.85c-1.36,0-2.72,0-4.07,0-.19,0-.36,0-.36-.25s.18-.25.37-.25H18.9a2.51,2.51,0,0,1-.86-2.2H15a12.3,12.3,0,0,1-.73,1.2,3.64,3.64,0,0,1-3,1.51c-1.45,0-2.9,0-4.34,0H6.74c-.16,0-.27-.08-.27-.25s.1-.24.26-.25M18.14,28.2a.69.69,0,0,0,0-.1,3.81,3.81,0,0,1,3.15-2.59,2.39,2.39,0,0,1,2.81,2.18.65.65,0,0,0,0,.18,9.17,9.17,0,0,0,4.19-2.7c-.83,0-1.64,0-2.44,0a.7.7,0,0,1-.29,0c-.1-.05-.24-.16-.24-.24s.13-.19.23-.26.14,0,.21,0h2.82c.08,0,.21,0,.25-.05.27-.36.52-.74.78-1.11l-.05-.07H19.69c-.33,0-.45-.07-.45-.26s.12-.26.45-.26H30l.45-1.17H22c-.17,0-.31-.08-.3-.27s.13-.25.3-.25a1.21,1.21,0,0,1,.19,0h8.42l.21-1H24.18c-.32,0-.46-.08-.44-.26s.25-.25.44-.25h7.58l.3-1.43H5.67l-.3,1.43h7.52c.36,0,.5.07.47.26s-.27.25-.47.25H6.13l-.21,1H16.65c.35,0,.48.07.48.26s-.14.26-.47.26H5.82l-.08,1.17h8.89c.17,0,.29.07.3.25s-.13.27-.31.27H5.76L6,24.61H16.34c.2,0,.42,0,.45.25s-.13.27-.45.27h-10a4.79,4.79,0,0,0,2.9,2.66s0,0,0,0a1.74,1.74,0,0,0,.1-.19,3.86,3.86,0,0,1,2.94-2.07A2.38,2.38,0,0,1,15,27.61a5.8,5.8,0,0,1,0,.59ZM15.07,6.08l-1.38.19a2.15,2.15,0,0,1-2-.72c-.13-.15-.27-.29-.38-.44a2.42,2.42,0,0,0-2.24-1,4.73,4.73,0,0,1-.53,0,.64.64,0,0,1-.58-1l.22-.41a1,1,0,0,0,.12-.29c.06-.3-.08-.42-.38-.33a3,3,0,0,0-1.76,1.5,4.51,4.51,0,0,0-.54,2.49c.06,1,.19,2.05.3,3.08l.57,5.46a9.45,9.45,0,0,1,.08,1.3,7.57,7.57,0,0,1-.2,1.14c0,.22-.07.44-.11.66h6.6c-.13-.15-.2-.28-.31-.34a3.82,3.82,0,0,0-1-.47c-.72-.16-1.45-.26-2.17-.35a12.27,12.27,0,0,0-1.23,0L8.56,15a1.8,1.8,0,0,1,.1-.4.39.39,0,0,1,.28-.16c.08,0,.15.16.2.26s0,.14,0,.21L8.87,16l.2,0c.77.09,1.54.14,2.3.3a2.37,2.37,0,0,1,2,1.41h.91l-.23-.25c-.39-.38-.8-.75-1.17-1.16a16.43,16.43,0,0,1-1.35-1.67,2.33,2.33,0,0,1,.76-3.34l.13-.05a.55.55,0,0,0-.18-.11c-.66-.22-1.32-.43-2-.66a6.47,6.47,0,0,1-.69-.36.25.25,0,0,1-.12-.35c.08-.15.22-.15.36-.1a1.11,1.11,0,0,1,.16.07c.55.24,1.1.51,1.67.71a4.49,4.49,0,0,0,4.15-.52A3,3,0,0,0,17,8.51a3.83,3.83,0,0,0,.15-.58c-.5-.34-1-.63-1.42-.95A1.56,1.56,0,0,1,15.07,6.08Zm2.47,11.65H28.33a5,5,0,0,0-.14-.73,1.3,1.3,0,0,0-1.11-.86,1.34,1.34,0,0,0-1.3.59c-.11.16-.24.3-.44.16s-.09-.32,0-.46.3-.33.46-.5a2.46,2.46,0,0,0-1.84-2c0,.09.05.17.07.25s.06.19.08.28c.06.32,0,.47-.17.51s-.28-.06-.34-.4A2.33,2.33,0,0,0,20.08,13,2.28,2.28,0,0,0,19,14.7h.29a2.37,2.37,0,0,1,2.23,1.8c.08.34,0,.51-.15.53s-.3-.2-.35-.39a1.83,1.83,0,0,0-2.18-1.39A1.81,1.81,0,0,0,17.54,17.73Zm6.08,10.18A1.77,1.77,0,0,0,22.07,26a2.79,2.79,0,0,0-2.3.68,2.92,2.92,0,0,0-1.22,2.42,1.8,1.8,0,0,0,1.6,1.78A3.2,3.2,0,0,0,23.62,27.91ZM12.56,26a3.29,3.29,0,0,0-3.07,2.66,1.87,1.87,0,0,0,2,2.29,3.27,3.27,0,0,0,3-2.71A1.87,1.87,0,0,0,12.56,26ZM9,3.6l1,.06c.13-.25.27-.5.4-.76a.22.22,0,0,0,0-.18.24.24,0,0,0-.17,0A2,2,0,0,0,9,3.6Z" transform="translate(-0.3 -1.54)"/><path class="cls-1" d="M26.24,12.74a1.6,1.6,0,1,1,1.59,1.6A1.6,1.6,0,0,1,26.24,12.74Zm.52,0a1.08,1.08,0,1,0,1.07-1.08A1.07,1.07,0,0,0,26.76,12.75Z" transform="translate(-0.3 -1.54)"/><path class="cls-1" d="M23.67,11.39a1,1,0,1,1,1.07,1.06A1.05,1.05,0,0,1,23.67,11.39Zm.52,0a.53.53,0,1,0,.53-.52A.54.54,0,0,0,24.19,11.4Z" transform="translate(-0.3 -1.54)"/><path class="cls-3" d="M18.14,28.2H15a5.8,5.8,0,0,0,0-.59,2.38,2.38,0,0,0-2.79-2.1,3.86,3.86,0,0,0-2.94,2.07,1.74,1.74,0,0,1-.1.19s0,0,0,0a4.79,4.79,0,0,1-2.9-2.66H16.34c.32,0,.47-.08.45-.27s-.25-.25-.45-.25H6l-.27-1.23h8.86c.18,0,.31-.08.31-.27s-.13-.25-.3-.25H5.74l.08-1.17H16.66c.33,0,.46-.08.47-.26s-.13-.26-.48-.26H5.92l.21-1h6.76c.2,0,.44.05.47-.25s-.11-.26-.47-.26H5.37l.3-1.43H32.06l-.3,1.43H24.18c-.19,0-.41,0-.44.25s.12.26.44.26h6.59l-.21,1H22.14a1.21,1.21,0,0,0-.19,0c-.17,0-.3.07-.3.25s.13.26.3.27h8.49L30,22.86H19.69c-.33,0-.46.07-.45.26s.12.26.45.26h10l.05.07c-.26.37-.51.75-.78,1.11,0,.05-.17.05-.25.05H25.84c-.07,0-.16,0-.21,0s-.23.17-.23.26.14.19.24.24a.7.7,0,0,0,.29,0c.8,0,1.61,0,2.44,0a9.17,9.17,0,0,1-4.19,2.7.65.65,0,0,1,0-.18,2.39,2.39,0,0,0-2.81-2.18,3.81,3.81,0,0,0-3.15,2.59A.69.69,0,0,1,18.14,28.2Z" transform="translate(-0.3 -1.54)"/><path class="cls-4" d="M15.07,6.08a1.56,1.56,0,0,0,.69.9c.45.32.92.61,1.42.95a3.83,3.83,0,0,1-.15.58,3,3,0,0,1-1.19,1.43,4.49,4.49,0,0,1-4.15.52c-.57-.2-1.12-.47-1.67-.71a1.11,1.11,0,0,0-.16-.07c-.14,0-.28,0-.36.1a.25.25,0,0,0,.12.35,6.47,6.47,0,0,0,.69.36c.65.23,1.31.44,2,.66a.55.55,0,0,1,.18.11l-.13.05a2.33,2.33,0,0,0-.76,3.34,16.43,16.43,0,0,0,1.35,1.67c.37.41.78.78,1.17,1.16l.23.25h-.91a2.37,2.37,0,0,0-2-1.41c-.76-.16-1.53-.21-2.3-.3l-.2,0,.24-1.09c0-.07.05-.16,0-.21s-.12-.24-.2-.26a.39.39,0,0,0-.28.16,1.8,1.8,0,0,0-.1.4l-.34,1.52a12.27,12.27,0,0,1,1.23,0c.72.09,1.45.19,2.17.35a3.82,3.82,0,0,1,1,.47c.11.06.18.19.31.34H6.28c0-.22.07-.44.11-.66a7.57,7.57,0,0,0,.2-1.14,9.45,9.45,0,0,0-.08-1.3L5.94,9.16c-.11-1-.24-2-.3-3.08a4.51,4.51,0,0,1,.54-2.49,3,3,0,0,1,1.76-1.5c.3-.09.44,0,.38.33a1,1,0,0,1-.12.29L8,3.12a.64.64,0,0,0,.58,1,4.73,4.73,0,0,0,.53,0,2.42,2.42,0,0,1,2.24,1c.11.15.25.29.38.44a2.15,2.15,0,0,0,2,.72Zm-4.16.28c-.24.22-.43.26-.56.1s-.11-.15-.09-.21a1.41,1.41,0,0,1,.18-.37.59.59,0,0,0-.68.27.63.63,0,0,0,.06.74.64.64,0,0,0,.75.17A.62.62,0,0,0,10.91,6.36Z" transform="translate(-0.3 -1.54)"/><path class="cls-2" d="M22.64,27.75c.19.43.07.83.34.95a.4.4,0,0,0,.41-.05c.3-.24.13-1-.13-1.46,0-.07-.59-1-1.33-.91-.2,0-.52.13-.54.31C21.34,26.92,22.3,27,22.64,27.75Z" transform="translate(-0.3 -1.54)"/><polygon class="cls-2" points="22.25 11.65 20.97 11.3 19.97 11.53 19.35 12.21 19.23 12.8 19.79 12.76 20.92 12.34 22.25 12.42 22.43 12.49 22.25 11.65"/><path class="cls-2" d="M20.69,16.24a1.34,1.34,0,0,0-.64-.74,1.7,1.7,0,0,0-1.55.07c-.93.91-1.08,1.39-.95,1.64.33.68,2.91.41,3.17-.42A1.08,1.08,0,0,0,20.69,16.24Z" transform="translate(-0.3 -1.54)"/><path class="cls-2" d="M27.87,16.8a1.12,1.12,0,0,0-.75-.52c-.43-.07-.93.16-.93.36s.46.33.64.38a1.31,1.31,0,0,1,.32.12,3.66,3.66,0,0,1,.33.23c.15.08.43.17.54.07S28,17,27.87,16.8Z" transform="translate(-0.3 -1.54)"/><path class="cls-2" d="M28.65,12.18c-.11-.19-.37-.46-.66-.4s-.38.18-.38.34a.45.45,0,0,0,.24.3c.09,0,.15,0,.21.09s.05.12.08.19a.47.47,0,0,0,.59.15C28.88,12.72,28.77,12.36,28.65,12.18Z" transform="translate(-0.3 -1.54)"/><path class="cls-2" d="M13.52,27.68c.2.42.06.79.34.95a.44.44,0,0,0,.43,0c.29-.21.15-1-.15-1.52s-.81-1.05-1.33-.91c-.19,0-.43.2-.44.4C12.35,27,13.2,27,13.52,27.68Z" transform="translate(-0.3 -1.54)"/><path class="cls-5" d="M17.54,17.73a1.81,1.81,0,0,1,1.3-2.48A1.83,1.83,0,0,1,21,16.64c.05.19.06.42.35.39s.23-.19.15-.53a2.37,2.37,0,0,0-2.23-1.8H19A2.28,2.28,0,0,1,20.08,13a2.33,2.33,0,0,1,3.55,1.57c.06.34.15.44.34.4s.23-.19.17-.51c0-.09-.05-.19-.08-.28S24,14,24,13.9a2.46,2.46,0,0,1,1.84,2c-.16.17-.32.33-.46.5s-.23.32,0,.46.33,0,.44-.16a1.34,1.34,0,0,1,1.3-.59,1.3,1.3,0,0,1,1.11.86,5,5,0,0,1,.14.73Zm2.12-3.51a2.2,2.2,0,0,1,1.39-.83,2.38,2.38,0,0,1,1.55.38A1.46,1.46,0,0,0,21,13,1.52,1.52,0,0,0,19.66,14.22Zm.89,2.53a1.34,1.34,0,0,0-2.67.21,1.37,1.37,0,0,1,1.24-1.08A1.41,1.41,0,0,1,20.55,16.75Zm5.85-.2a1.32,1.32,0,0,1,1.43.88.9.9,0,0,0-1.43-.88Z" transform="translate(-0.3 -1.54)"/><path d="M23.62,27.91a3.2,3.2,0,0,1-3.47,3,1.8,1.8,0,0,1-1.6-1.78,2.92,2.92,0,0,1,1.22-2.42,2.79,2.79,0,0,1,2.3-.68A1.77,1.77,0,0,1,23.62,27.91Zm-1.45.35a.81.81,0,0,0-.74-.84A1.34,1.34,0,0,0,20,28.81a.78.78,0,0,0,.66.71A1.34,1.34,0,0,0,22.17,28.26Zm-.58-1.79a2.15,2.15,0,0,1,1.61,2.16,1.39,1.39,0,0,0-.14-1.52A1.44,1.44,0,0,0,21.59,26.47Z" transform="translate(-0.3 -1.54)"/><path d="M12.56,26a1.87,1.87,0,0,1,1.95,2.24,3.27,3.27,0,0,1-3,2.71,1.87,1.87,0,0,1-2-2.29A3.29,3.29,0,0,1,12.56,26Zm.52,2.28a.82.82,0,0,0-.87-.87,1.39,1.39,0,0,0-1.29,1.14.82.82,0,0,0,.78,1A1.34,1.34,0,0,0,13.08,28.28Zm1,.36a1.5,1.5,0,0,0-.28-1.7,1.37,1.37,0,0,0-1.32-.48A2.2,2.2,0,0,1,14.11,28.64Z" transform="translate(-0.3 -1.54)"/><path class="cls-4" d="M9,3.6a2,2,0,0,1,1.19-.91.24.24,0,0,1,.17,0,.22.22,0,0,1,0,.18c-.13.26-.27.51-.4.76Z" transform="translate(-0.3 -1.54)"/><path class="cls-5" d="M26.76,12.75a1.08,1.08,0,1,1,1.07,1.08A1.07,1.07,0,0,1,26.76,12.75Zm1.92,0a.69.69,0,0,0-.21-.64c-.19-.16-.39-.31-.66-.2Z" transform="translate(-0.3 -1.54)"/><path class="cls-5" d="M24.19,11.4a.53.53,0,1,1,.53.54A.53.53,0,0,1,24.19,11.4Z" transform="translate(-0.3 -1.54)"/></g></svg>